<?xml version="1.0" encoding="UTF-8" standalone="no"?> <svg xmlns="http://www.w3.org/2000/svg" xmlns:xlink="http://www.w3.org/1999/xlink"  viewBox="0 0 3000 3000">
  <defs>
    <clipPath id="clip-_1">
      <rect width="3000" height="3000"/>
    </clipPath>
  </defs>
  <g id="_1" data-name="1" clip-path="url(#clip-_1)">
    <rect width="3000" height="3000" fill="transparent"/>
    <path id="shadow" d="M2175.8,1162.086H1205.929s-82.4-17.178-145.367,117.01S1350.45,2556.917,1350.45,2556.917H1037.6L790.187,1048.426H2195.229Z" fill="#e6e6e6"/>
    <path id="Path_3" data-name="Path 3" d="M786.716,440.5l246.968,1518.513h461.471" transform="translate(1.682 597.904)" fill="none" stroke="#000" stroke-width="20"/>
    <g id="Group_1" data-name="Group 1">
      <path id="Path_4" data-name="Path 4" d="M1495.155,440.5,1248.187,1959.013H786.715" transform="translate(710.682 597.904)" fill="none" stroke="#000" stroke-width="20"/>
      <line id="Line_1" data-name="Line 1" x2="1088" transform="translate(957.182 728.458)" fill="none" stroke="#000" stroke-linecap="round" stroke-width="20"/>
      <line id="Line_2" data-name="Line 2" x2="1685" transform="translate(658.182 1038.5)" fill="none" stroke="#000" stroke-linecap="round" stroke-width="20"/>
      <path id="Path_1" data-name="Path 1" d="M965.864,201.5l-57.6,132.2H739.669L667.778,509.1" transform="translate(-11.778 526.958)" fill="none" stroke="#000" stroke-linecap="round" stroke-linejoin="round" stroke-width="20"/>
      <path id="Path_2" data-name="Path 2" d="M965.864,509.1l-57.6-132.2H739.669L667.778,201.5" transform="translate(1377.222 526.958)" fill="none" stroke="#000" stroke-linecap="round" stroke-linejoin="round" stroke-width="20"/>
    </g>
    <path id="Union_1" data-name="Union 1" d="M695,618.074H101.232L0,0H1391.229L1290,618.074Z" transform="translate(804 1438.276)" fill="#039625" stroke="#000" stroke-linecap="round" stroke-linejoin="round" stroke-width="20"/>
    <path id="Path_10" data-name="Path 10" d="M804,1426.5h387.979l69.5,612.941H906.4Z" transform="translate(0 11.719)" fill="rgba(56,56,56,0.36)"/>
    <path id="Path_7" data-name="Path 7" d="M893.453,858.047h515.479" transform="translate(1 2)" fill="none" stroke="#000" stroke-linecap="round" stroke-width="20"/>
    <path id="Path_8" data-name="Path 8" d="M2195.229,1038.4H788.881" fill="none" stroke="#707070" stroke-width="1"/>
    <g id="Ellipse_1" data-name="Ellipse 1" transform="translate(1270 1511.573)" fill="#fff" stroke="#707070" stroke-width="1">
      <circle cx="230" cy="230" r="230" stroke="none"/>
      <circle cx="230" cy="230" r="229.5" fill="none"/>
    </g>
  </g>
</svg>
